<svg xmlns="http://www.w3.org/2000/svg" width="1183.92" height="281.36" viewBox="0 0 1183.92 281.36">
  <defs>
    <style>
      .cls-1 {
        fill: #e6e5ef;
      }
    </style>
  </defs>
  <g id="レイヤー_2" data-name="レイヤー 2">
    <g id="ロゴ">
      <g>
        <path class="cls-1" d="M416.45,119a52.5,52.5,0,1,1,52.5,52.5A52.51,52.51,0,0,1,416.45,119Zm52.5,76.5a76.5,76.5,0,1,0-76.5-76.5A76.5,76.5,0,0,0,469,195.52Z"/>
        <path class="cls-1" d="M219.79,204.22c0,8.05-6,11.92-13.7,11.92-8.34,0-13.4-3.87-13.4-11.92v-95.3c0-25.31-7.15-39.61-28.59-39.61-15.79,0-26.21,9.53-33.36,20.26-4.47,6.25-8,17.86-8,26.8v87.85c0,8.05-5.66,11.92-13.4,11.92-8.34,0-13.4-3.87-13.4-11.92v-95.3c0-25.31-7.45-39.61-28.59-39.61-15.79,0-25.32,9.24-32.47,20-5.36,8-8,18.76-8,28.59v86.36c0,8.05-5.36,11.92-13.1,11.92-8.34,0-13.7-3.87-13.7-11.92v-145c0-7.74,5.66-11.62,14-11.62,7.44,0,12.8,3.88,12.8,11.62v6.25c0,3.87-1.19,9.83-2.08,14.3,7.44-17.57,20-34.25,49.14-34.25,26.21,0,40.5,11.91,44.37,32.46,8.64-15.48,19.36-32.46,52.42-32.46,35.14,0,49.14,21.14,49.14,57.48Z"/>
        <path class="cls-1" d="M351.34,96.12c0-19.66-10.72-28.29-34.25-28.29-21.74,0-32.46,8.33-37.52,22-2.08,5.66-6.55,7.75-11.61,7.75a17.5,17.5,0,0,1-6.85-1.19c-5.66-1.79-9.83-6-9.83-11.32a15.31,15.31,0,0,1,.59-3.57c3-9.24,10.73-17.87,17.57-23.23,10.43-8,23.83-13.11,47.95-13.11C357.3,45.19,377,61,377,96.12v81.3c0,10.43,1.49,20.55,3.27,26.21a10.46,10.46,0,0,1,.6,3c0,4.76-4.47,8.93-11.91,9.53h-2.69c-6,0-11.31-1.79-12.5-7.15a84.27,84.27,0,0,1-1.79-14.89c-11.32,12.81-27.1,24.42-56.59,24.42-32.75,0-52.71-18.47-52.71-49.14,0-28,16.68-45.86,45-53.61,16.38-4.46,31.87-6.25,63.73-6.85Zm0,34.25c-34.84.89-51.22,3.87-63.13,9.83S270,155.38,270,169.68c0,15.48,11.91,25.91,29.78,25.91a56.08,56.08,0,0,0,43.78-21.15c5.66-7.14,7.74-12.8,7.74-24.12Z"/>
        <path class="cls-1" d="M521.45,63.52l-.77-5.22c0-6.26,4.17-10.73,12.81-10.73,8,0,12.8,3.88,12.8,11.92V197.38c0,68.49-36,84-75.35,84-32.16,0-52.71-10.72-64-25.32a11,11,0,0,1-2.38-6.55,13.33,13.33,0,0,1,5.66-10.42,15.1,15.1,0,0,1,8.64-3,11.13,11.13,0,0,1,8.63,3.87c11,12.81,24.13,19.06,42.29,19.06,37.23,0,51.82-18.76,52.12-62.84V174"/>
        <path class="cls-1" d="M605.21,195.81c-.06,7.74-5.15,11.58-13.49,11.52-8-.06-12.17-4-12.11-11.71l1-136c0-8,4.24-11.87,12.28-11.82,8.34.06,13.37,4,13.32,12Z"/>
        <polygon class="cls-1" points="593.45 0 599.34 11.92 612.49 13.84 602.97 23.11 605.22 36.22 593.45 30.03 581.68 36.22 583.93 23.11 574.41 13.84 587.57 11.92 593.45 0"/>
        <path class="cls-1" d="M715.37,44.89c39.31,0,55.39,21.74,62.84,40.51a13.3,13.3,0,0,1,.89,4.46c0,5.66-4.46,9.24-8.93,11a24.68,24.68,0,0,1-6.55.9c-4.47,0-8.34-1.79-10.43-6.85C747.53,79.74,738.6,68.12,716,68.12c-31,0-48,26.21-48,64,0,39,16.68,63.74,48.24,63.74,23.23,0,32.46-11.32,38.12-27.4,2.09-5.66,6.26-8,11-8a15.47,15.47,0,0,1,6.26,1.19c5.36,1.19,9.53,4.76,9.53,10.12a12.57,12.57,0,0,1-1.19,5.36c-8,20.55-23.83,42-64.33,42-48.25,0-75.35-35.43-75.35-86.66C640.32,81.53,666.53,44.89,715.37,44.89Z"/>
        <path class="cls-1" d="M1183.92,204.22c0,8.05-6,11.92-13.7,11.92-8.34,0-13.4-3.87-13.4-11.92v-95.3c0-25.31-7.15-39.61-28.59-39.61-15.79,0-26.21,9.53-33.36,20.26-4.47,6.25-8,17.86-8,26.8v87.85c0,8.05-5.66,11.92-13.4,11.92-8.34,0-13.4-3.87-13.4-11.92v-95.3c0-25.31-7.45-39.61-28.59-39.61-15.79,0-25.32,9.24-32.47,20-5.36,8-8,18.76-8,28.59v86.36c0,8.05-5.36,11.92-13.1,11.92-8.34,0-13.7-3.87-13.7-11.92v-145c0-7.74,5.66-11.62,14-11.62,7.44,0,12.8,3.88,12.8,11.62v6.25c0,3.87-1.19,9.83-2.08,14.3,7.44-17.57,19.95-34.25,49.14-34.25,26.21,0,40.5,11.91,44.37,32.46,8.64-15.48,19.36-32.46,52.42-32.46,35.14,0,49.14,21.14,49.14,57.48Z"/>
        <path class="cls-1" d="M818.45,132.52A52.5,52.5,0,1,1,871,185,52.51,52.51,0,0,1,818.45,132.52ZM871,209a76.5,76.5,0,1,0-76.5-76.5A76.5,76.5,0,0,0,871,209Z"/>
      </g>
    </g>
  </g>
</svg>
