<svg xmlns="http://www.w3.org/2000/svg" width="789.28" height="187.57" viewBox="0 0 789.28 187.57">
  <defs>
    <style>
      .cls-1 {
        fill: #050303;
      }
    </style>
  </defs>
  <g id="レイヤー_2" data-name="レイヤー 2">
    <g id="ロゴ">
      <g>
        <path class="cls-1" d="M277.63,79.35a35,35,0,1,1,35,35A35,35,0,0,1,277.63,79.35Zm35,51a51,51,0,1,0-51-51A51,51,0,0,0,312.63,130.35Z"/>
        <path class="cls-1" d="M146.52,136.15c0,5.36-4,7.94-9.13,7.94-5.56,0-8.93-2.58-8.93-7.94V72.62c0-16.88-4.77-26.41-19.06-26.41-10.53,0-17.47,6.35-22.24,13.5-3,4.17-5.36,11.91-5.36,17.87v58.57c0,5.36-3.77,7.94-8.94,7.94-5.55,0-8.93-2.58-8.93-7.94V72.62c0-16.88-5-26.41-19.06-26.41-10.52,0-16.88,6.15-21.64,13.3a35.47,35.47,0,0,0-5.36,19.06v57.58c0,5.36-3.57,7.94-8.74,7.94-5.56,0-9.13-2.58-9.13-7.94V39.46c0-5.16,3.77-7.74,9.33-7.74,5,0,8.54,2.58,8.54,7.74v4.17a58.79,58.79,0,0,1-1.39,9.53c5-11.71,13.3-22.83,32.76-22.83,17.47,0,27,7.94,29.58,21.64,5.76-10.33,12.91-21.64,35-21.64,23.42,0,32.75,14.09,32.75,38.31Z"/>
        <path class="cls-1" d="M234.23,64.08c0-13.11-7.15-18.86-22.83-18.86-14.5,0-21.64,5.56-25,14.69-1.39,3.77-4.37,5.16-7.74,5.16a11.76,11.76,0,0,1-4.57-.79c-3.77-1.19-6.55-4-6.55-7.55a9.88,9.88,0,0,1,.4-2.38c2-6.15,7.14-11.91,11.71-15.49,7-5.36,15.88-8.73,32-8.73,26.6,0,39.7,10.52,39.7,34v54.2a64.78,64.78,0,0,0,2.19,17.47,7,7,0,0,1,.39,2c0,3.17-3,5.95-7.94,6.35h-1.78c-4,0-7.55-1.19-8.34-4.76a55.41,55.41,0,0,1-1.19-9.93c-7.55,8.54-18.07,16.28-37.73,16.28-21.84,0-35.14-12.31-35.14-32.76,0-18.66,11.12-30.58,30-35.74,10.92-3,21.24-4.17,42.49-4.56Zm0,22.83c-23.23.6-34.15,2.58-42.09,6.55S180,103.59,180,113.12c0,10.32,7.94,17.27,19.85,17.27a37.41,37.41,0,0,0,29.19-14.09c3.77-4.77,5.16-8.54,5.16-16.09Z"/>
        <path class="cls-1" d="M347.63,42.35l-.51-3.49c0-4.17,2.78-7.14,8.54-7.14,5.36,0,8.53,2.58,8.53,7.94v91.92c0,45.67-24,56-50.23,56-21.44,0-35.14-7.14-42.68-16.87a7.34,7.34,0,0,1-1.59-4.37,8.89,8.89,0,0,1,3.77-7,10.1,10.1,0,0,1,5.76-2A7.46,7.46,0,0,1,285,160c7.34,8.54,16.08,12.71,28.19,12.71,24.82,0,34.55-12.51,34.74-41.89V116"/>
        <path class="cls-1" d="M403.47,130.54c0,5.16-3.43,7.72-9,7.68-5.36,0-8.11-2.64-8.08-7.81l.68-90.68c0-5.36,2.82-7.92,8.18-7.88,5.56,0,8.92,2.64,8.88,8Z"/>
        <polygon class="cls-1" points="395.63 0 399.56 7.95 408.33 9.22 401.98 15.41 403.48 24.15 395.63 20.02 387.79 24.15 389.29 15.41 382.94 9.22 391.71 7.95 395.63 0"/>
        <path class="cls-1" d="M476.91,29.93c26.21,0,36.93,14.49,41.9,27a8.93,8.93,0,0,1,.59,3c0,3.77-3,6.15-5.95,7.35a16.84,16.84,0,0,1-4.37.59,6.92,6.92,0,0,1-6.95-4.57c-3.77-10.12-9.73-17.86-24.82-17.86-20.65,0-32,17.47-32,42.68,0,26,11.11,42.49,32.16,42.49,15.49,0,21.64-7.54,25.41-18.27,1.39-3.77,4.17-5.36,7.35-5.36a10.31,10.31,0,0,1,4.17.8c3.57.79,6.35,3.17,6.35,6.75a8.43,8.43,0,0,1-.79,3.57c-5.36,13.7-15.89,28-42.89,28-32.16,0-50.23-23.63-50.23-57.78C426.88,54.35,444.35,29.93,476.91,29.93Z"/>
        <path class="cls-1" d="M789.28,136.15c0,5.36-4,7.94-9.13,7.94-5.56,0-8.94-2.58-8.94-7.94V72.62c0-16.88-4.76-26.41-19.06-26.41-10.52,0-17.47,6.35-22.24,13.5-3,4.17-5.36,11.91-5.36,17.87v58.57c0,5.36-3.77,7.94-8.93,7.94-5.56,0-8.94-2.58-8.94-7.94V72.62c0-16.88-5-26.41-19.06-26.41-10.52,0-16.87,6.15-21.64,13.3a35.47,35.47,0,0,0-5.36,19.06v57.58c0,5.36-3.57,7.94-8.73,7.94-5.56,0-9.14-2.58-9.14-7.94V39.46c0-5.16,3.78-7.74,9.33-7.74,5,0,8.54,2.58,8.54,7.74v4.17a57.7,57.7,0,0,1-1.39,9.53c5-11.71,13.31-22.83,32.76-22.83,17.47,0,27,7.94,29.59,21.64,5.75-10.33,12.9-21.64,34.94-21.64,23.43,0,32.76,14.09,32.76,38.31Z"/>
        <path class="cls-1" d="M545.63,88.35a35,35,0,1,1,35,35A35,35,0,0,1,545.63,88.35Zm35,51a51,51,0,1,0-51-51A51,51,0,0,0,580.63,139.35Z"/>
      </g>
    </g>
  </g>
</svg>
